<svg enable-background="new 0 0 127.1 136.8" viewBox="0 0 127.1 136.8" xmlns="http://www.w3.org/2000/svg"><path d="m125.4 97.1-10.8-19.4v-25.8c0-13.8-5.7-27.4-15.6-37.1-9.8-9.7-22.6-14.9-36.1-14.7-27.7.4-50.2 23.2-50.2 50.8v26.8l-10.8 19.4c-2.5 4.4-2.4 9.6.2 14 2.6 4.3 7.1 6.9 12.1 6.9h27.8c1.5 10.7 10.6 18.9 21.7 18.9 11 0 20.2-8.2 21.7-18.9h27.8c5 0 9.6-2.6 12.1-6.9 2.5-4.4 2.6-9.6.1-14zm-61.8 33.8c-7.7 0-14.2-5.6-15.6-12.9h31.2c-1.4 7.3-7.8 12.9-15.6 12.9zm56.5-22.9c-1.5 2.5-4.1 4-7 4h-99c-2.9 0-5.5-1.5-7-4s-1.5-5.5-.1-8l11.2-20.1c.2-.4.4-.9.4-1.5v-27.5c.1-24.4 20-44.5 44.4-44.8h.6c11.6 0 22.7 4.6 31.2 12.9 8.8 8.7 13.8 20.6 13.8 32.9v26.5c0 .5.1 1 .4 1.5l11.2 20.1c1.4 2.5 1.3 5.5-.1 8z" fill="#040000"/></svg>