<svg height="20" viewBox="0 0 18 20" width="18" xmlns="http://www.w3.org/2000/svg" xmlns:xlink="http://www.w3.org/1999/xlink"><clipPath id="a"><path d="m0-1h18v22h-18z"/></clipPath><g clip-path="url(#a)" transform="translate(0 1)"><g fill="none" stroke="#ccc" transform="translate(0 .5)"><circle cx="9" cy="9" r="9" stroke="none"/><circle cx="9" cy="9" fill="none" r="8.5"/></g><path d="m635.595 831.557a.674.674 0 0 1 0-.82.417.417 0 0 1 .673 0l3.109 3.166 5.267-6.429a.417.417 0 0 1 .672 0 .673.673 0 0 1 0 .821l-5.491 6.7a.526.526 0 0 1 -.061.064.546.546 0 0 1 -.052.073.418.418 0 0 1 -.673 0z" fill="#ccc" transform="translate(-631.456 -821.803)"/></g></svg>