<svg enable-background="new 0 0 141.6 138.6" viewBox="0 0 141.6 138.6" xmlns="http://www.w3.org/2000/svg"><g fill="#040000"><path d="m52.5 110.4c-7.3 0-13.2 5.9-13.2 13.2s5.9 13.2 13.2 13.2 13.2-5.9 13.2-13.2-5.9-13.2-13.2-13.2zm0 20.4c-4 0-7.2-3.2-7.2-7.2s3.2-7.2 7.2-7.2 7.2 3.2 7.2 7.2-3.2 7.2-7.2 7.2z"/><path d="m112.5 110.4c-7.3 0-13.2 5.9-13.2 13.2s5.9 13.2 13.2 13.2 13.2-5.9 13.2-13.2-6-13.2-13.2-13.2zm0 20.4c-4 0-7.2-3.2-7.2-7.2s3.2-7.2 7.2-7.2 7.2 3.2 7.2 7.2-3.3 7.2-7.2 7.2z"/><path d="m43.4 82.8h72.8c6.6 0 12.3-4.5 13.8-10.9l11.9-48.9c.2-.9 0-1.8-.6-2.6-.6-.7-1.4-1.1-2.4-1.1h-108.9l-3.7-15.1c-.3-1.3-1.5-2.3-2.9-2.3h-20.1c-1.7 0-3 1.3-3 3s1.3 3 3 3h17.7l17.4 71.4-4.7 8.7c-2 3.8-2.2 7.6-.5 10.4 1.5 2.5 4.3 3.9 7.8 3.9h90c1.7 0 3-1.3 3-3s-1.3-3-3-3h-90c-.8 0-2.1-.1-2.7-1s-.3-2.6.6-4.5zm-12-57.5h103.7l-11 45.2c-.9 3.7-4.2 6.3-8 6.3h-72.2z"/></g></svg>