<svg height="30.714" viewBox="0 0 30.713 30.714" width="30.713" xmlns="http://www.w3.org/2000/svg"><g fill="#fff" transform="translate(-304.557 -397.012)"><circle cx="325.026" cy="417.481" r="5.115"/><path d="m331.448 425.342-2.132-2.132a7.2 7.2 0 1 1 1.439-1.439l2.137 2.126.988.983a6.921 6.921 0 0 0 1.386-4.138v-16.75a6.912 6.912 0 0 0 -4.4-6.422l-.064-.026a6.952 6.952 0 0 0 -.979-.3 6.956 6.956 0 0 0 -.63-.128c-.053-.006-.1-.025-.152-.031a7.061 7.061 0 0 0 -.754-.075h-16.75a6.761 6.761 0 0 0 -.863.087c-.053.007-.1.025-.154.034a7.006 7.006 0 0 0 -.522.11 6.9 6.9 0 0 0 -1.019.315l-.068.028a6.9 6.9 0 0 0 -4.135 4.9c-.052.211-.082.426-.114.644-.01.082-.035.158-.042.242-.02.207-.063.408-.063.62v16.753a6.681 6.681 0 0 0 .068.674c.007.082.032.158.042.239.029.184.056.366.1.544a6.94 6.94 0 0 0 5.371 5.382 7.032 7.032 0 0 0 1.4.141h16.752a7.018 7.018 0 0 0 1.291-.13 6.912 6.912 0 0 0 2.855-1.265zm-17.678-21.172h-3.07a1.1 1.1 0 0 1 -.214 0 1.028 1.028 0 1 1 .214-2.044h3.071a.912.912 0 0 1 .214 0 1.028 1.028 0 1 1 -.214 2.044z"/></g></svg>