<svg xmlns="http://www.w3.org/2000/svg" width="13" height="12" viewBox="0 0 13 12">
    <g data-name="그룹 55737">
        <g data-name="그룹 55736">
            <path data-name="패스 31342" d="M12.575 6.456a1.7 1.7 0 0 0 .417-1.3 1.549 1.549 0 0 0-1.5-1.421h-2.04l.212-.635A3.014 3.014 0 0 0 9.5.921 1.548 1.548 0 0 0 8.118 0h-.127a1 1 0 0 0-.951.97A2.277 2.277 0 0 1 6.5 2.3L4.745 4.218a.986.986 0 0 0-.923-.727H.986A1.036 1.036 0 0 0 0 4.573v6.345A1.037 1.037 0 0 0 .986 12h2.837a.931.931 0 0 0 .659-.286H10.4a1.55 1.55 0 0 0 1.509-1.474 1.742 1.742 0 0 0-.059-.588 1.675 1.675 0 0 0 .425-1.129 1.74 1.74 0 0 0-.064-.467 1.676 1.676 0 0 0 .426-1.129 1.727 1.727 0 0 0-.066-.471m-.3-1.22a.832.832 0 0 1-.327.764l-.288.2.168.327a.859.859 0 0 1 .093.392.824.824 0 0 1-.336.675l-.287.2.166.327a.876.876 0 0 1 .093.393.821.821 0 0 1-.336.675l-.287.2.168.327a.881.881 0 0 1 .091.454.8.8 0 0 1-.788.739H4.8V5.261L7 2.847a3.125 3.125 0 0 0 .749-1.826.249.249 0 0 1 .242-.239h.127a.829.829 0 0 1 .74.489 2.163 2.163 0 0 1 .125 1.565l-.3.9a.625.625 0 0 0 .064.53.511.511 0 0 0 .428.246H11.5a.791.791 0 0 1 .788.711z" style="fill:#ec5363"/>
        </g>
    </g>
</svg>
