<svg xmlns="http://www.w3.org/2000/svg"
  xmlns:xlink="http://www.w3.org/1999/xlink" width="18" height="20" viewBox="0 0 18 20">
  <defs>
    <clipPath id="clip-path">
      <rect y="-1" width="18" height="22" fill="none"/>
    </clipPath>
  </defs>
  <g id="확인" transform="translate(0 1)" clip-path="url(#clip-path)" style="isolation: isolate">
    <g id="그룹_55254" data-name="그룹 55254" transform="translate(-555 -376.5)">
      <g id="타원_1249" data-name="타원 1249" transform="translate(555 377)" fill="none" stroke="#ec5363" stroke-width="1">
        <circle cx="9" cy="9" r="9" stroke="none"/>
        <circle cx="9" cy="9" r="8.5" fill="none"/>
      </g>
      <path id="합치기_53" data-name="합치기 53" d="M635.595,831.557a.674.674,0,0,1,0-.82h0a.417.417,0,0,1,.673,0h0l3.109,3.166,5.267-6.429a.417.417,0,0,1,.672,0h0a.673.673,0,0,1,0,.821h0l-5.491,6.7a.526.526,0,0,1-.061.064.546.546,0,0,1-.052.073.418.418,0,0,1-.673,0h0Z" transform="translate(-76.456 -445.303)" fill="#ec5363"/>
    </g>
  </g>
</svg>
