<svg viewBox="0 0 321.6 71.6" xmlns="http://www.w3.org/2000/svg"><path d="m26.12 1.14c-22.7 7.4-32.3 30-22 51.2 6.7 13.8 22.8 21.3 39.6 18.5 13.9-2.3 25.5-11.2 29.9-22.9 3.3-8.7 2.5-19.5-1.9-28a39.24 39.24 0 0 0 -17.9-17c-4.6-2.2-7.4-2.7-14.7-2.94-5.4-.16-10.6.34-13 1.14zm13.5 17.2c8.6 7.3 13.2 30.6 7 35.6-4.9 4-10.3 1.2-14.8-7.8-2.8-5.4-5.2-15.2-5.2-20.7 0-8.9 6.5-12.5 13-7.1z"/><path d="m187.62 2.64c-5.4 1.9-9 5-9 7.8 0 .8 1.4 2.8 3.1 4.5 2.9 2.9 3.3 3 9.4 2.6 7.7-.7 14.5-4.1 15.9-8.1.9-2.3.6-3.1-1.6-5.4-3.5-3.5-10.3-4.04-17.8-1.4z"/><path d="m92.82 21.64c-11.5 2.9-15.8 7.5-11.4 11.9 4.2 4.2 3.9 22-.4 27.2-5.8 6.8-1.4 10.3 12.5 10.2 14.9 0 18.8-2.6 15.7-10.3-1.8-4.5-2.2-19.9-.6-23 1.4-2.6 4.5-2.4 6.4.3 1.2 1.6 1.6 4.7 1.6 10.8 0 7.6-.3 9-2.5 12-3.2 4.4-3.2 6.6.3 8.3 6.3 3.2 23.4 2.6 27.3-.9 2.3-2 2.4-5.2.4-7.8s-2.1-21.6-.3-23.4c3.8-3.8 7 .7 7.6 10.8.4 6.3 0 8.5-1.8 12.7-1.2 2.9-1.9 5.7-1.5 6.2 1.7 2.8 7.2 4.4 15.1 4.3 13.1 0 17.4-3.5 13.4-10.9-1.7-3.3-2-5.6-2-17.2 0-12.9-.1-13.5-2.6-16.9-6.1-7.9-17.6-8.2-26.6-.7l-3.1 2.6-3.9-3.8c-3.7-3.7-4.2-3.8-10.7-3.8-6.3 0-7.3.3-12.2 3.7l-5.4 3.7-1-3.7c-1.3-4.6-3.6-4.94-14.3-2.3z"/><path d="m192.12 21.64c-8.1 2-13 4.4-13.9 6.6s-1 2 3 6.2l3.5 3.8-.3 9.2c-.4 8.4-.6 9.5-3.1 12.1-3.9 4.1-3.9 7.1 0 9.4 4.8 2.9 23.7 2.9 28.5.1 4.3-2.5 4.6-5.2 1.1-9.4-2.8-3.3-2.8-3.3-3.1-20.3-.2-9.8-.8-17.6-1.4-18.4-1.42-1.6-5.8-1.4-14.3.7z"/><path d="m235.62 20.64c-17.3 5.3-25.7 22.5-18.2 37.2 7.8 15.4 29.5 18.4 46.3 6.3 9-6.6 12.5-19 8-28.9-2.3-5.2-10.8-12.8-15.9-14.3-4.3-1.3-16.3-1.5-20.2-.3zm11.1 16.1c2.4 4.8 4.1 15.4 2.9 18.6-1.6 4-5 2.8-7.7-2.6-2.3-4.6-4.1-15.6-2.9-18.5s5.7-1.5 7.7 2.5z"/><path d="m288.62 20.84c-9.9 4-13 17.3-5.8 25.4a46.81 46.81 0 0 0 8.9 7.1c6.3 3.8 7.5 6.6 3.2 7.2-1.5.2-3.8-1.1-7.1-4.2-5.8-5.4-9.8-6.2-10.8-2-.9 3.6 1.3 10.2 4.5 13.4 2.4 2.4 3.5 2.7 13.1 3.3 18.7 1.2 27-3.7 27-16 0-4.4-.5-5.8-3-8.6a35.88 35.88 0 0 0 -8.8-6.5c-6.4-3.4-9.7-6.5-8.7-8.1q1.65-2.85 8.4 2.4c6.7 5.3 12.1 4.5 12.1-1.9 0-3.6-4.4-11.3-6.8-11.9-3.3-.9-23.7-.6-26.2.4z"/></svg>