<svg height="18" viewBox="0 0 18 18" width="18" xmlns="http://www.w3.org/2000/svg"><path d="m9 0a9 9 0 1 0 9 9 8.995 8.995 0 0 0 -9-9zm-.266 13.212a.912.912 0 0 1 0-1.824.912.912 0 0 1 0 1.824zm1.35-4.612a1.488 1.488 0 0 0 -.663 1.481c0 .225-.118.486-.7.486-.486 0-.652-.178-.652-.794a2.169 2.169 0 0 1 .794-1.8c.391-.332 1.054-.7 1.054-1.339 0-.545-.474-.806-1.066-.806-1.208 0-.948.912-1.587.912a.679.679 0 0 1 -.711-.675c0-.64.734-1.587 2.334-1.587 1.516 0 2.523.841 2.523 1.955a3.032 3.032 0 0 1 -1.326 2.167z" fill="#333"/></svg>