<svg height="18.857" viewBox="0 0 18 18.857" width="18" xmlns="http://www.w3.org/2000/svg"><path d="m717.4 305.278h-13.2a2.91 2.91 0 0 0 -2.12.919 3.2 3.2 0 0 0 -.878 2.222v12.573a3.072 3.072 0 0 0 3 3.142h9.006a3.071 3.071 0 0 0 3-3.142v-8.172h.6a2.461 2.461 0 0 0 2.4-2.517v-2.829a2.071 2.071 0 0 0 -1.808-2.196zm-10.923 3.771a.613.613 0 0 1 .125 0h4.2a.625.625 0 0 1 .536.693.617.617 0 0 1 -.536.561h-4.2a.609.609 0 0 1 -.661-.561.625.625 0 0 1 .539-.693zm-1.8 3.771a.612.612 0 0 1 .125 0h7.198a.61.61 0 0 1 .662.562.624.624 0 0 1 -.536.693.515.515 0 0 1 -.126 0h-7.2a.609.609 0 0 1 -.661-.561.625.625 0 0 1 .541-.693zm-.536 3.832a.625.625 0 0 1 .536-.693.608.608 0 0 1 .125 0h7.198a.625.625 0 0 1 .537.693.617.617 0 0 1 -.537.561h-7.2a.609.609 0 0 1 -.656-.56zm8 3.708a.515.515 0 0 1 -.126 0h-3.937a.609.609 0 0 1 -.661-.561.625.625 0 0 1 .536-.693.613.613 0 0 1 .125 0h3.937a.61.61 0 0 1 .662.562.624.624 0 0 1 -.536.693zm5.859-10.06a1.232 1.232 0 0 1 -1.2 1.261l-.6-.005v-4.084a.9.9 0 1 1 1.8 0z" fill="#333" transform="translate(-701.206 -305.278)"/></svg>