<svg height="16.254" viewBox="0 0 18 16.254" width="18" xmlns="http://www.w3.org/2000/svg"><path d="m698.156 361.332a.47.47 0 0 0 -.353-.161v-.092.092a.524.524 0 0 0 -.495.547v1.794l-.015.024-4.342 6.767v-1.227a.5.5 0 1 0 -1 0v2.175l-.1-.024-8.8-2.014a2.424 2.424 0 0 1 -1.752-2.267 1.51 1.51 0 0 1 .186-.764l.061-.1a1.1 1.1 0 0 1 .164-.186 1.236 1.236 0 0 1 1.145-.245l9.548 2.191a.48.48 0 0 0 .507-.221l5.3-8.253a.6.6 0 0 0 .091-.409.566.566 0 0 0 -.2-.358.452.452 0 0 0 -.2-.095l-9.552-2.194a2.068 2.068 0 0 0 -.552-.076 2.174 2.174 0 0 0 -1.772.956l-5.261 8.2a2.626 2.626 0 0 0 -.461 1.535 3.5 3.5 0 0 0 2.549 3.355l9.381 2.152a.5.5 0 0 0 .214.052h.058a.486.486 0 0 0 .409-.236l5.3-8.251a.6.6 0 0 0 .092-.308v-1.984a.585.585 0 0 0 -.15-.375zm-10.414-1.3a.573.573 0 0 1 .693-.389l4.068 1.064a.57.57 0 0 1 .372.22.535.535 0 0 1 .1.407.53.53 0 0 1 -.222.357.585.585 0 0 1 -.43.1.607.607 0 0 1 -.115-.019l-4.059-1.059a.562.562 0 0 1 -.407-.682zm-1.636 2.532a.573.573 0 0 1 .693-.389l4.068 1.064a.569.569 0 0 1 .372.22.535.535 0 0 1 -.117.764.585.585 0 0 1 -.43.1.61.61 0 0 1 -.115-.019l-4.059-1.059a.562.562 0 0 1 -.412-.682z" fill="#333" transform="translate(-680.299 -356.237)"/></svg>