<svg height="81.25" viewBox="0 0 81.25 81.25" width="81.25" xmlns="http://www.w3.org/2000/svg"><g fill="#fff" stroke="#f2f2f2"><rect height="81.25" rx="40.625" stroke="none" width="81.25"/><rect fill="none" height="80.25" rx="40.125" width="80.25" x=".5" y=".5"/></g><path d="m512.464-10489.8s9.405 8.693 19 0" fill="none" stroke="#ec5363" stroke-width="1.2" transform="translate(-480.964 10537.632)"/><path d="m11.5 44.264a26.355 26.355 0 0 1 -9.2-1.564c-.564-.1-1.088-.717-1.682-5.044a91.676 91.676 0 0 1 -.541-5.105c-.44-6.9 1.018-4.281 4.217-8.571 4.117-5.52.4-12.72-.842-14.8a.572.572 0 0 1 .119-.725s.077-.067.22-.176a10.264 10.264 0 0 1 1.179-.791l-2.57-5.375a.572.572 0 0 1 .24-.746l2.299-1.291a.6.6 0 0 1 .5-.037.581.581 0 0 1 .351.361l2.01 6.2a4.994 4.994 0 0 1 3.942 1.7.048.048 0 0 0 .026.016 4.085 4.085 0 0 1 3.37-1.536l2.072-6.38a.581.581 0 0 1 .347-.36.6.6 0 0 1 .5.037l2.3 1.291a.572.572 0 0 1 .24.746l-2.613 5.473a12.456 12.456 0 0 1 1.393.827.571.571 0 0 1 .172.766c-1.239 2.075-4.959 9.275-.842 14.8 3.2 4.29 4.657 1.667 4.217 8.571-.031.48-.235 2.879-.541 5.105-.6 4.366-1.128 4.956-1.7 5.047a27.5 27.5 0 0 1 -9.183 1.561m-8.82-2.664a26.869 26.869 0 0 0 17.638 0c.606-.862 1.282-6.812 1.43-9.126.295-4.624-.158-2.675-3.992-7.816-4.259-5.712-1.014-12.881.5-15.586a9.645 9.645 0 0 0 -1.286-.682.581.581 0 0 1 -.315-.325.567.567 0 0 1 .018-.449l2.634-5.516-1.2-.673-1.991 6.139a.589.589 0 0 1 -.635.4 2.894 2.894 0 0 0 -2.772 1.058 1.193 1.193 0 0 1 -.938.444 1.229 1.229 0 0 1 -.88-.378 3.771 3.771 0 0 0 -3.417-1.3.59.59 0 0 1 -.646-.4l-1.936-5.958-1.2.673 2.578 5.388a.572.572 0 0 1 -.27.764 8.136 8.136 0 0 0 -1.277.778c1.507 2.676 4.8 9.885.523 15.623-3.838 5.142-4.291 3.192-3.997 7.816.148 2.316.824 8.269 1.431 9.127" fill="#333" stroke="#333" stroke-width=".4" transform="translate(28.999 20)"/><g fill="#ec5363"><circle cx="40.796" cy="34.132" r="1.5"/><circle cx="40.796" cy="39.132" r="1.5"/><circle cx="40.796" cy="44.132" r="1.5"/></g></svg>