<svg height="81.25" viewBox="0 0 81.25 81.25" width="81.25" xmlns="http://www.w3.org/2000/svg"><g fill="#fff" stroke="#f2f2f2"><rect height="81.25" rx="40.625" stroke="none" width="81.25"/><rect fill="none" height="80.25" rx="40.125" width="80.25" x=".5" y=".5"/></g><g transform="translate(23 20)"><path d="m1.355 31.208 2.361.673 1.416.4" fill="none" stroke="#ec5363" stroke-width="1.4"/><path d="m1.355 32.284 2.488-.673 1.493-.4" fill="none" stroke="#ec5363" stroke-width="1.4" transform="translate(28)"/><path d="m36.348 150.033a.491.491 0 0 1 -.115-.014l-11.52-.139a.487.487 0 0 1 -.47-.592l3.862-17.539a.487.487 0 0 1 .951.21l-3.733 16.954 11.03.133a.484.484 0 0 1 .1.011h.858a.453.453 0 0 1 .1-.011l11.03-.133-3.7-16.824a.487.487 0 0 1 .951-.209l3.832 17.409a.487.487 0 0 1 -.47.592l-11.525.139a.314.314 0 0 1 -.114.014l-.532-.005-.524.005z" fill="#333" stroke="#333" stroke-width=".4" transform="translate(-19.511 -105.77)"/><path d="m25.31 24.057a.487.487 0 0 1 -.487-.487 9.892 9.892 0 0 0 -.377-2.705l-4.634-16.386a.487.487 0 0 1 .233-.559l6.965-3.856a.487.487 0 0 1 .236-.064h12.122a.487.487 0 0 1 .232.064l6.971 3.856a.487.487 0 0 1 .233.559l-4.636 16.386a9.948 9.948 0 0 0 -.373 2.553.493.493 0 0 1 -.491.481.486.486 0 0 1 -.483-.486 10.932 10.932 0 0 1 .41-2.811l4.53-16.016-6.519-3.609h-11.87l-6.518 3.609 4.529 16.014a10.869 10.869 0 0 1 .417 2.97.487.487 0 0 1 -.487.487" fill="#333" stroke="#333" stroke-width=".4" transform="translate(-15.937 -.002)"/><path d="m50.726 31.777a.486.486 0 0 1 -.321-.121c-3.463-3.031-9.394-10-10.206-22.633a.487.487 0 1 1 .972-.063c.789 12.28 6.526 19.031 9.875 21.962a.487.487 0 0 1 -.321.854" fill="#333" stroke="#333" stroke-width=".4" transform="translate(-32.365 -6.848)"/><path d="m66.091 24.654a.487.487 0 0 1 -.416-.232c-3.792-6.176-6.8-23.13-6.93-23.849a.487.487 0 0 1 .955-.173c.031.174 3.106 17.489 6.8 23.508a.487.487 0 0 1 -.415.742" fill="#333" stroke="#333" stroke-width=".2" transform="translate(-47.293 -.001)"/><path d="m90.707 30.157a.487.487 0 0 1 -.354-.822c3.387-3.586 7.564-10.035 8.229-20.374a.487.487 0 0 1 .972.062c-.684 10.632-4.996 17.277-8.493 20.977a.486.486 0 0 1 -.354.153" fill="#333" stroke="#333" stroke-width=".4" transform="translate(-72.64 -6.848)"/><path d="m83.593 115.591a.486.486 0 0 1 -.487-.486.487.487 0 1 1 .487.488" fill="#333" stroke="#333" stroke-width=".2" transform="translate(-66.913 -92.283)"/><g stroke-width=".4"><path d="m87.155 21.765a.486.486 0 0 1 -.487-.486.489.489 0 0 1 .037-.186c3.048-7.37 5.388-20.556 5.411-20.693a.487.487 0 1 1 .959.169c-.023.133-2.379 13.41-5.465 20.878a.488.488 0 0 1 -.455.314" fill="#333" stroke="#333" transform="translate(-69.78 -.001)"/><path d="m52.637 123.036a.487.487 0 0 1 -.115-.014l-9.578-2.315a.487.487 0 0 1 -.359-.588l.659-2.726a.487.487 0 0 1 .588-.359l8.193 1.982h.02l.707.171a.487.487 0 1 1 -.229.947l-.689-.166h-.02l-7.738-1.871-.43 1.779 9.105 2.2a.487.487 0 0 1 -.114.961" fill="#ec5363" stroke="#ec5363" transform="translate(-34.276 -94.218)"/><path d="m88.585 127.478a.487.487 0 0 1 -.094-.965l.686-.166a.487.487 0 1 1 .229.947l-.707.171a.483.483 0 0 1 -.115.014" fill="#ec5363" stroke="#ec5363" transform="translate(-70.931 -101.716)"/><path d="m108.809 121.912a.487.487 0 0 1 -.114-.961l4.458-1.078-.43-1.779-3.8.919a.487.487 0 1 1 -.229-.947l4.273-1.034a.487.487 0 0 1 .588.359l.658 2.726a.487.487 0 0 1 -.359.588l-4.931 1.192a.488.488 0 0 1 -.115.014" fill="#ec5363" stroke="#ec5363" transform="translate(-87.215 -94.218)"/><path d="m93.828 133.237a2.107 2.107 0 0 1 -2.1-2.1v-9.127a.487.487 0 0 1 .487-.487h3.235a.487.487 0 0 1 .487.487v9.123a2.107 2.107 0 0 1 -2.1 2.1m-1.137-10.733v8.636a1.13 1.13 0 1 0 2.26 0v-8.636z" fill="#ec5363" stroke="#ec5363" transform="translate(-73.851 -97.844)"/><path d="m92.215 181.162a.487.487 0 0 1 -.487-.487v-10.143a.487.487 0 0 1 .974 0v10.143a.487.487 0 0 1 -.487.487" fill="#ec5363" stroke="#ec5363" transform="translate(-73.854 -136.911)"/><path d="m4.344 58.708a.5.5 0 0 1 -.1-.01l-3.856-.798a.487.487 0 0 1 -.388-.54l3.86-30.413a.487.487 0 1 1 .967.123l-3.8 29.966 2.942.611 3.874-18a.487.487 0 1 1 .953.205l-3.976 18.472a.487.487 0 0 1 -.476.385" fill="#333" stroke="#333" transform="translate(0 -21.353)"/><path d="m137.866 58.708a.487.487 0 0 1 -.476-.385l-3.976-18.469a.487.487 0 1 1 .953-.205l3.874 18 2.942-.611-3.8-29.966a.487.487 0 0 1 .967-.123l3.857 30.412a.487.487 0 0 1 -.384.538l-3.857.8a.5.5 0 0 1 -.1.01" fill="#333" stroke="#333" transform="translate(-107.41 -21.353)"/><path d="m72.293 20.23h-9.339a.487.487 0 1 1 0-.974h9.339a.487.487 0 1 1 0 .974" fill="#333" stroke="#333" transform="translate(-50.295 -15.504)"/></g></g></svg>