<svg height="58" viewBox="0 0 58 58" width="58" xmlns="http://www.w3.org/2000/svg"><g fill="#ed7784" transform="translate(0 .001)"><path d="m124.946 38.766c.021.279.024.562.067.838a.446.446 0 0 0 .5.256.278.278 0 0 0 .114-.358 4.336 4.336 0 0 1 -.061-1.158.583.583 0 0 1 .19-.47c.319-.349.2-.7.014-1.059-.093-.08-.092-.149.011-.226a1.836 1.836 0 0 0 .2-.2c.178-.177 0-.471.2-.642v-.211c-.3-.219-.427.01-.518.192a6.2 6.2 0 0 0 -.3-2.964c-.187.057-.421.062-.549.185-.164.157.049.386.032.587a4.573 4.573 0 0 1 -.1.506c-.414.893-.093 1.862-.265 2.78a4.515 4.515 0 0 0 .029.488 1.229 1.229 0 0 0 .128.458l.109.112c.29.241.18.581.2.887" transform="translate(-68.181 -17.4)"/><path d="m107.565 11.364c.25-.027.325-.187.341-.41l-.608-.006c-.058.368 0 .445.268.416" transform="translate(-58.76 -5.814)"/><path d="m125.922 29.377.088-.033a.7.7 0 0 0 -.008-.206 1.043 1.043 0 0 0 -.185.029c-.09.031-.178.1-.131.2s.154.038.235.008" transform="translate(-68.837 -15.475)"/><path d="m117.96 92.277-.168.236a.254.254 0 0 0 .168-.236" transform="translate(-64.52 -49.006)"/><path d="m125.494 51.411c-.122.547-.234 1.1-.369 1.641a1.275 1.275 0 0 0 .161.913c.289.15.253.584.569.708a.479.479 0 0 0 .246-.438 3.673 3.673 0 0 1 .148-1.041 1.241 1.241 0 0 0 -.225-1.355c-.163-.173-.237-.433-.529-.428" transform="translate(-68.519 -27.303)"/><path d="m55.525 18.189v-.052a.6.6 0 0 1 -.016-.173.6.6 0 0 0 -.19-.037 2.6 2.6 0 0 0 -.063-.823c-.141-.639-.241-1.288-.358-1.933a3.726 3.726 0 0 0 -.165-.363.192.192 0 0 0 -.145-.089c-.032 0-.082.088-.085.138-.013.236-.012.472-.016.709l-.375-.215c0-.056 0-.112.008-.168.185-.162.182-.316-.018-.462l-.182-.39-.079-.042h.029l.05.045a.665.665 0 0 0 .148-.628.553.553 0 0 1 .234-.466 6.319 6.319 0 0 1 -.833-1.693.7.7 0 0 1 -.639.019l.007-.006c.022-.2-.015-.372-.239-.428a2.6 2.6 0 0 1 -.6-.815h-.006a.4.4 0 0 0 .047 0c.211-.183.5-.317.4-.692-.18-.233-.007-.314.164-.346a.337.337 0 0 1 .251.131.5.5 0 0 0 .648.136c.22-.107.164-.361.182-.566a3.025 3.025 0 0 0 -1.033-1.7c-.165-.192-.252-.439-.422-.627l-.2.2c-.7.255-.568.781-.2 1.134.563.546.19.715-.221.941 0 .008 0 .017-.006.026a3.249 3.249 0 0 0 -.415-.514 1.347 1.347 0 0 1 -.426-1l.239-.393a1.545 1.545 0 0 0 -1.2-.373c-.244 0-.194.22-.225.374l.011.011h-.012a21.47 21.47 0 0 0 -2.49-1.269c-.052-.381.305-.555.406-.859a2.643 2.643 0 0 0 -.178-.03.178.178 0 0 0 -.228-.011c-.06 0-.12 0-.179-.007a.6.6 0 0 0 -.633.029 1.668 1.668 0 0 1 -.811.2 10.826 10.826 0 0 1 -2.061-.874c-.149-.236-.423-.249-.629-.385l-.39-.043c-.2-.462-.623-.376-.992-.417l-.457-.193c-.029-.167-.43-.192-.163-.482.077-.084 0-.21-.087-.259a2.274 2.274 0 0 0 -1.415-.513c-.205-.15-.5-.16-.63-.428a.36.36 0 0 1 -.168-.037 10.567 10.567 0 0 0 -1.746-.987 1.762 1.762 0 0 0 -1.165-.241.6.6 0 0 0 -.1-.129c-.237 0-.486-.122-.707.069l-.409.024a1.2 1.2 0 0 0 -.722-.135 2.116 2.116 0 0 1 -.253.137 1.015 1.015 0 0 0 -.824.088 1.118 1.118 0 0 1 -.113-.023.866.866 0 0 0 -.43.072l-.013.012a1.63 1.63 0 0 0 -1.146-.368.321.321 0 0 1 -.181.019.2.2 0 0 0 -.105.17 4.627 4.627 0 0 0 -1.6.223 2.022 2.022 0 0 1 -.986-.2c-.161-.229-.4-.155-.619-.18a.733.733 0 0 1 -.65.111 1.006 1.006 0 0 0 -1.01.074c-.352.018-.722-.053-1.028.211l.009.02c-.237-.007-.491-.076-.658.185l-.784.231c-.513-.093-.805.213-1.042.619a7.937 7.937 0 0 0 -1.667.444 21.712 21.712 0 0 0 -3.288 1.636.877.877 0 0 1 -.189.074c-.456.257-1.032.239-1.413.666l.014-.005a1.139 1.139 0 0 0 -.186.176 1.282 1.282 0 0 0 -1.071.442c-.127 0-.338.241-.342-.11 0-.134.1-.268.1-.4a.3.3 0 0 0 -.145-.244.285.285 0 0 0 -.263.095 2.585 2.585 0 0 0 -.384 1.294l-.2.222c-.006.01-.015.018-.022.028a.524.524 0 0 0 -.019-.082c-.535-.355-.028-.55.113-.8.257-.463.238-.5-.28-.642-.257.237-.621.325-.824.637-.6.061-.681.6-.886 1.029v.03c-.041 0-.082.005-.123 0a.38.38 0 0 0 .041-.1c-.3-.724-.694-.424-1.092-.113a2.314 2.314 0 0 1 -.818 1.071c-.293.231-.6.449-.872.7-.089.08-.11.241-.163.365l-1.017.86c-.128.108-.088.31-.216.419-.349.521-.88.948-.825 1.678-.639.03-.651.646-.894 1.045.015.031.022.062.034.093l-.146.161c-.374-.128-.448.244-.63.438a1.675 1.675 0 0 0 -.219.9 1.611 1.611 0 0 1 -.2.8c0 .261.18.544-.1.769-.446.357-.445.9-.539 1.408a54.165 54.165 0 0 1 -1.284 3.09l-.014.053c-.513.082-.441.768-.734 1.077a4.342 4.342 0 0 0 -.551 1.313 8.737 8.737 0 0 0 -.464 2.522l-.409 1.078c.053.086.069.207.2.222.046.05.119.093.133.152.159.647 0 1.323.177 1.98.047.167-.231.409-.3.636a2.554 2.554 0 0 0 -.022.627c.365.689.135 1.487.376 2.2a2.321 2.321 0 0 0 .065.288c.038.137.076.273.108.411.039.224.055.453.115.673.023.072.042.144.062.217-.157-.062-.322-.12-.337.178-.022.445.012.893.022 1.341h-.03c-.3.582.024 1.154.024 1.732.022.429.313.809.215 1.26.387.624.173 1.436.6 2.047.084.163.167.325.247.491.038.081.076.161.12.239a4.22 4.22 0 0 1 .319 1 1.709 1.709 0 0 0 .187.356l.022.035a.417.417 0 0 0 -.083.558 1.963 1.963 0 0 0 .625 1.477 2.375 2.375 0 0 1 .862 1.055.591.591 0 0 0 .586.659l.2.441a1.139 1.139 0 0 0 .006.2h.14c.009.022.019.043.031.064s.039.063.059.094a.916.916 0 0 0 .166.147 1.635 1.635 0 0 0 .2.111l.019.01a.444.444 0 0 0 -.189.412.426.426 0 0 0 .2-.4c.093.051.185.1.279.149a.977.977 0 0 0 .328.106c.018.282-.057.588.2.81.029.185.084.325.314.254a1.331 1.331 0 0 1 .292-.026c.035.234.01.511.3.595.347.1.339.377.338.66.321.541.918.706 1.394 1a2.432 2.432 0 0 1 1.064 1.139l.811.427a.958.958 0 0 0 .9.4 1.509 1.509 0 0 1 1.314.285 1.377 1.377 0 0 0 .887.168c.1.584.1.584.642.63.063.006.128 0 .192 0l-.27.356c.5.085.872.525 1.375.481.379-.033.508.268.746.426.31-.351.635-.513 1.042-.135a.654.654 0 0 0 .677.085c.192-.058.372-.18.571-.1l.2.6c0 .281.244.51.161.809-.147.076-.291.156-.441.226-.08.037-.2.044-.149.172.015.04.114.061.175.065a.454.454 0 0 0 .44-.181c.721-.33.748-.314.823.483.009.1.014.2.02.308l-.023.453c0 .068.007.135.008.2.39-.115.39-.115.4-.637a.773.773 0 0 0 .077-.474.425.425 0 0 1 .287-.569c-.009.247.3.372.27.627h-.009a2.92 2.92 0 0 0 .012.933.561.561 0 0 0 -.081.255c.161.392.494.411.842.462a13.353 13.353 0 0 1 1.49.047h.4c.583-.093.776-.485.743-1.047l.291-.005c.218.306.549.175.832.232l.4-.014a.936.936 0 0 0 .64.3.382.382 0 0 0 .181-.07c.149.189.273.011.4-.056l.21-.2c0-.006.011-.009.016-.015a.683.683 0 0 0 0 .077.436.436 0 0 0 .427 0l.582-.016c.241-.317.241-.317-.149-.479a.454.454 0 0 1 .443-.187.619.619 0 0 0 .552-.2l-.021-.03h.014l.006.029c.465-.2.526-.321.429-.838a.808.808 0 0 1 .12-.023 1.549 1.549 0 0 0 2 .777.834.834 0 0 0 -.089.06c-.07.263-.372.21-.589.27l-1.639.186a.351.351 0 0 0 -.435.392c.423-.022.865.122 1.257-.159l.586-.04c.366 0 .757.237 1.093-.045a1.882 1.882 0 0 1 1.239-.408c.122 0 .241-.109.362-.168a.615.615 0 0 0 .184-.032.579.579 0 0 0 .617-.2c.154-.024.317-.023.422-.174.455-.122.755-.545 1.227-.656a3.521 3.521 0 0 0 1.466-.863l.594-.239c.509-.31 1.206-.353 1.425-1.076.143-.635.78-.676 1.156-1.031a.642.642 0 0 0 .06.062.863.863 0 0 0 .363.122 1.58 1.58 0 0 1 .364.117.525.525 0 0 0 .373.03c.159-.086.262-.2.153-.395a1.3 1.3 0 0 0 -.181-.179 1.521 1.521 0 0 1 .96-.2.425.425 0 0 0 .019.066l.086.1a.79.79 0 0 0 .25.113c.671 0 1.3-.339 1.976-.281.068 0 .136-.006.2-.012a1.277 1.277 0 0 1 .223-.195 1.809 1.809 0 0 0 .189-.019 2.262 2.262 0 0 1 .217-.2l.4-.226c.068-.068.135-.138.2-.209a.862.862 0 0 1 .408-.413.886.886 0 0 0 .461-.82 3.078 3.078 0 0 0 1.8-1.336.28.28 0 0 0 .213-.205 1.393 1.393 0 0 1 .217-.2 29.818 29.818 0 0 0 3.9-4.278.955.955 0 0 0 .168-.236 1.6 1.6 0 0 0 .034-.192 19.056 19.056 0 0 0 1.294-2.269 4.018 4.018 0 0 0 .162-.5c.09-.229.172-.454-.216-.417a21.106 21.106 0 0 1 -1.253 2.747l-.165.345a.363.363 0 0 0 -.078-.018 1.268 1.268 0 0 0 -.385.238 3.948 3.948 0 0 0 .435-.766l.6-1.522.7-2.084c-.043-.092-.063-.235-.131-.265-.119-.053-.129.093-.162.178l-.156.4a.53.53 0 0 0 -.18-.174.443.443 0 0 0 -.095-.012h.005l.669-3.122c.218.158.183.4.2.629s-.029.471.193.628a6.671 6.671 0 0 1 .195-1.484l.014-.611a4.676 4.676 0 0 0 -.041-.5c-.024-.134-.066-.258.041-.371q0-.422.009-.844a.3.3 0 0 0 .013-.416l-.024-.233a1.543 1.543 0 0 0 .215-.842c.142-.067.14-.141.012-.223.017-.14.218-.287-.014-.418v-.214a.855.855 0 0 0 .164-.986c-.141-.379.114-.884-.342-1.152-.208-.122-.226-.335-.231-.554a2.684 2.684 0 0 1 .135-.833c.109-.369.162-.755.239-1.134-.287-.429.053-.9-.083-1.337a7.931 7.931 0 0 1 -.1-1.48c-.076-.007-.155-.007-.229-.021a.391.391 0 0 1 .229.021c0-.066 0-.131.008-.2l-.007-.865q-.005-.1 0-.193v-.453l.036-.4.177-.023a.7.7 0 0 0 -.036-.241.623.623 0 0 0 .041-.136 1.462 1.462 0 0 0 0-.148 2.444 2.444 0 0 1 .19 1.449 1.89 1.89 0 0 0 .033 1.215c.235.159.189.41.2.644h.2l.014-3.832a3.54 3.54 0 0 0 -.3-2.17.711.711 0 0 0 -.129.092"/><path d="m122.907 51.537c-.048.073-.018.133.065.143.014 0 .045-.048.052-.078a1.855 1.855 0 0 0 .02-.189.681.681 0 0 0 -.137.124" transform="translate(-67.309 -27.304)"/><path d="m123.237 51.405v.007" transform="translate(-67.502 -27.296)"/><path d="m120.271 20.141c.028-.05.083-.1.08-.149a3.975 3.975 0 0 0 -.068-.4.34.34 0 0 0 -.157.434c.018.051.1.079.146.117" transform="translate(-65.784 -10.403)"/><path d="m123.348 25.995c-.093-.3-.265-.271-.56.079a1.8 1.8 0 0 1 .481 1.414c0 .106.065.2.181.165a.223.223 0 0 0 .127-.141 2.731 2.731 0 0 0 -.229-1.517" transform="translate(-67.256 -13.696)"/><path d="m38.412 117.32a1.4 1.4 0 0 0 -.2.024.811.811 0 0 0 0 .172l.2.211c.223-.014.483.13.653-.116.087-.128-.242-.284-.655-.291" transform="translate(-20.928 -62.305)"/><path d="m109.584 15.026v-.008l-.009-.009.008.016" transform="translate(-60.019 -7.972)"/><path d="m110.764 12.487v-.377a.614.614 0 0 1 -.4-.22 2.535 2.535 0 0 0 -.367.1.267.267 0 0 0 -.1.156 2.686 2.686 0 0 0 .509.438c.077.044.232-.062.351-.1" transform="translate(-60.198 -6.314)"/><path d="m113.435 16.507c.043 0 .092-.051.138-.08-.03-.053-.048-.128-.092-.15a.155.155 0 0 0 -.151.039.122.122 0 0 0 .1.191" transform="translate(-62.065 -8.641)"/><path d="m53.75 122.694a.087.087 0 0 0 .028.07c.01.009.041-.007.063-.011 0-.027.023-.063.012-.08-.04-.067-.083-.058-.1.021" transform="translate(-29.44 -65.124)"/></g></svg>