<svg height="22" width="22" xmlns="http://www.w3.org/2000/svg"><g fill="#ec5363" stroke="#ec5363"><rect height="22" rx="5" stroke="none" width="22"/><rect fill="none" height="21" rx="4.5" width="21" x=".5" y=".5"/></g><path d="m20.491 1.505a5.1 5.1 0 0 0 -3.629-1.505h-11.727a5.128 5.128 0 0 0 -5.135 5.135v11.727a5.135 5.135 0 0 0 5.135 5.138h5.865a.736.736 0 1 0 0-1.464h-5.865a3.664 3.664 0 0 1 -3.664-3.664v-11.737a3.664 3.664 0 0 1 3.664-3.671h11.727a3.664 3.664 0 0 1 3.664 3.664v5.872a.736.736 0 1 0 1.474 0v-5.865a5.1 5.1 0 0 0 -1.505-3.629z" fill="#ec5363"/><g fill="#fff"><path d="m6.033 5.328a.736.736 0 1 0 0 1.464h2.2a.736.736 0 1 0 0-1.464z" transform="translate(-1.634 -1.665)"/><path d="m23.08 22.049a5.155 5.155 0 1 0 -1.031 1.031l3.011 3.011a.734.734 0 1 0 1.04-1.038zm-7.768-3.073a3.664 3.664 0 1 1 3.664 3.664 3.664 3.664 0 0 1 -3.664-3.664z" transform="translate(-4.314 -4.314)"/></g></svg>