<svg enable-background="new 0 0 138.6 138.6" viewBox="0 0 138.6 138.6" xmlns="http://www.w3.org/2000/svg"><path d="m137.6 133.3-43.4-43.5c8.9-9.9 13.8-22.6 13.8-36 0-14.4-5.6-28-15.8-38.2-21.1-21.1-55.3-21.1-76.4 0-10.3 10.2-15.9 23.8-15.9 38.2s5.6 28 15.8 38.2c10.5 10.5 24.4 15.8 38.2 15.8 12.9 0 25.8-4.6 36-13.7l43.5 43.5c.6.6 1.4.9 2.1.9.8 0 1.5-.3 2.1-.9 1.2-1.3 1.2-3.2 0-4.3zm-117.6-45.6c-9.1-9-14.1-21.1-14.1-33.9s5-24.9 14.1-33.9c9.4-9.4 21.6-14 33.9-14s24.6 4.7 33.9 14c9.1 9.1 14.1 21.1 14.1 33.9s-5 24.9-14.1 33.9c-18.6 18.8-49.1 18.8-67.8 0z" fill="#040000"/></svg>