<svg xmlns="http://www.w3.org/2000/svg"
  xmlns:xlink="http://www.w3.org/1999/xlink" width="22" height="32" viewBox="0 0 22 32">
  <defs>
    <clipPath id="clip-path">
      <rect y="-6" width="22" height="34" fill="none"/>
    </clipPath>
  </defs>
  <g id="장바구니" transform="translate(0 6)" clip-path="url(#clip-path)" style="isolation: isolate">
    <g id="장바구니-2" data-name="장바구니" transform="translate(0 -1)">
      <rect id="사각형_3316" data-name="사각형 3316" width="22" height="22" fill="none" opacity="0"/>
      <path id="패스_11236" data-name="패스 11236" d="M-68.08-71.091h0a2.7,2.7,0,0,0-2.706-2.546h-1.1v-.312a5.684,5.684,0,0,0-5.7-5.614h-.044a5.685,5.685,0,0,0-5.7,5.614v.312H-84.4a2.746,2.746,0,0,0-2.743,2.547l-.47,10.765v.113A2.714,2.714,0,0,0-84.9-57.565h14.65a2.705,2.705,0,0,0,2.635-2.769Zm-16.8,11.971h-.01a1.14,1.14,0,0,1-.8-.325,1.123,1.123,0,0,1-.342-.8l.469-10.769a1.149,1.149,0,0,1,1.15-1.069h1.078v1.472a.769.769,0,0,0,.234.55.784.784,0,0,0,.552.226h.009a.784.784,0,0,0,.787-.776v-1.472h8.281v1.472a.785.785,0,0,0,.787.776h.007a.784.784,0,0,0,.788-.776v-1.472h1.072a1.161,1.161,0,0,1,1.155,1.063l.469,10.741a1.145,1.145,0,0,1-1.129,1.158Zm3.133-14.518v-.311a4.111,4.111,0,0,1,4.124-4.064h.03A4.113,4.113,0,0,1-73.47-73.95v.312Z" transform="translate(88.609 79.565)" fill="#333"/>
    </g>
  </g>
</svg>
